**ABCDEFGHIJKLMNOPQRSTUVWXYZabcdefghijklmnopqrstuvwxyz**************************
**PARASOLID !"#$%&'()*+,-./:;<=>?@[\]^_`{|}~0123456789**************************
**PART1;
MC=AMD64;
MC_MODEL=Intel64 Family 6 Model 158 Stepping 9, GenuineIntel;
MC_ID=unknown;
OS=Windows_NT;
OS_RELEASE=unknown;
FRU=Parasolid Version 28.0, build 204, 11- 9-2015;
APPL=SOLIDWORKS 2016-2016040;
SITE=;
USER=unknown;
FORMAT=text;
GUISE=transmit;
KEY=makeProjectedPlanarWire;
FILE=makeProjectedPlanarWire.x_t;
DATE=Fri Aug 24 12:14:08 2018;
**PART2;
SCH=SCH_2800204_28002;
USFLD_SIZE=0;
**PART3;
**END_OF_HEADER*****************************************************************
T51 : TRANSMIT FILE created by modeller version 280020423 SCH_2800204_28002_1300
6200 0 12 30 CCCCCCCCCCCCCDI5 owner1040 0 CCCCCCCCCA13 boundary_mesh1006 0 A16 i
ndex_map_offset0 0 1 dA9 index_map82 0 A17 node_id_index_map82 0 A20 schema_embe
dding_map82 0 A5 child12 0 A14 lowest_node_id0 0 1 dZ1 127 0 2 0 0 0 0 1e3 1e-8
 0 3 0 1 0 3 1 4 5 6 7 8 9 10 0 0 0 0 0 0 0 70 11 CI9 list_type0 0 1 uI10 notran
smit0 0 1 lCCCDCCDI12 finger_index0 0 1 dI12 finger_block1012 0 CZ2 0 4 T1 0 0 1
 20 1 11 11 13 255 4 124 0 1 0 12 0 0 8 12 50 255 5 2 0 12 0 0 0 +0 .10912092421
79718 0 0 -1 0 0 0 -1 30 255 6 50 0 9 13 0 0 +-.04378097151543635 .1091209242179
718 -.0411114000815738 .68453234065971 0 -.728982492650502 29 255 7 116 0 10 14
 0 -.03125321812929185 .1091209242179718 -.0544526439473362 19 8 CCCCCCCA5 owner
12 0 Z8 123 0 1 0 0 4 V0 16 255 9 49 0 ?15 0 16 6 0 0 1 18 255 10 114 0 17 0 18
 7 ?1 17 255 17 0 0 0 0 10 19 20 0 15 -18 18 111 0 21 10 22 14 ?1 17 21 0 23 15
 24 18 25 16 0 26 +18 22 108 0 24 18 27 28 ?1 29 14 113 0 18 28 7 -.041563121952
4215 .1091209242179718 -.0434732658499789 29 28 110 0 22 29 14 -.041563121952421
5 .1091209242179718 .02503749975200795 29 29 107 0 27 30 28 -.03257870508083365
 .1091209242179718 .0334740863265489 18 27 105 0 31 22 32 29 ?1 29 30 104 0 32 3
3 29 -.03257870508083365 .1091209242179718 .0401039139491789 18 32 102 0 34 27 3
5 30 ?1 29 33 101 0 35 36 30 .02969820029238765 .1091209242179718 .0401039139491
789 18 35 99 0 37 32 38 33 ?1 29 36 98 0 38 39 33 .0296982002923879 .10912092421
79718 .03347408632654915 18 38 96 0 40 35 41 36 ?1 29 39 95 0 41 42 36 .03806699
90947237 .1091209242179718 .02510528752421265 18 41 93 0 43 38 44 39 ?1 29 42 92
 0 44 45 39 .0380669990947237 .1091209242179718 -.04355014306035235 18 44 90 0 4
6 41 47 42 ?1 29 45 89 0 47 48 42 .0296982002923879 .1091209242179718 -.05445264
39473362 18 47 87 0 19 44 49 45 ?1 29 48 86 0 49 50 45 -.07 .1091209242179718 .0
698046575192405 18 49 84 0 51 47 52 48 ?1 29 50 83 0 52 53 48 -.0788842502287491
 .1091209242179718 .0609204072904916 18 52 81 0 54 49 55 50 ?1 29 53 80 0 55 56
 50 -.0788842502287491 .1091209242179718 -.0786633805554547 18 55 78 0 57 52 58
 53 ?1 29 56 77 0 58 59 53 -.07 .1091209242179718 -.0875476307842037 18 58 75 0
 60 55 61 56 ?1 29 59 74 0 61 62 56 .0699090737319318 .1091209242179718 -.087547
6307842037 18 61 72 0 63 58 64 59 ?1 29 62 71 0 64 65 59 .078286185538559 .10912
09242179718 -.0786633805554547 18 64 69 0 66 61 67 62 ?1 29 65 68 0 67 68 62 .07
8286185538559 .1091209242179718 .0614275457126133 18 67 66 0 69 64 70 65 ?1 29 6
8 65 0 70 71 65 .0698272383946602 .1091209242179718 .0698864928565121 18 70 63 0
 72 67 73 68 ?1 29 71 62 0 73 74 68 .02619130964287115 .1091209242179718 .069886
4928565121 18 73 60 0 75 70 76 71 ?1 29 74 59 0 76 77 71 .02619130964287115 .109
1209242179718 .0755696813363442 18 76 57 0 78 73 79 74 ?1 29 77 56 0 79 80 74 -.
0281829188277795 .1091209242179718 .0755696813363442 18 79 54 0 81 76 82 77 ?1 2
9 80 53 0 82 0 77 -.0281829188277795 .1091209242179718 .0698046575192405 18 82 5
1 0 83 79 0 80 ?1 17 83 0 84 81 85 82 51 86 0 87 +15 255 84 5 0 83 12 23 17 81 0
 84 78 83 79 87 88 0 89 +17 85 0 84 83 54 49 90 91 0 0 +17 51 0 0 0 0 49 83 86 0
 85 -16 86 7 0 ?83 88 0 92 0 0 1 17 87 0 0 0 0 82 81 88 0 0 -16 88 9 0 ?81 93 86
 94 0 0 1 16 93 11 0 ?78 95 88 96 0 0 1 30 94 10 0 88 92 96 0 +-.028182918827779
5 .1091209242179718 .0698046575192405 0 0 1 30 92 8 0 86 0 94 0 +-.0281829188277
795 .1091209242179718 .0698046575192405 1 0 0 30 96 12 0 93 94 97 0 +-.028182918
8277795 .1091209242179718 .0755696813363442 1 0 0 30 97 14 0 95 96 98 0 +.026191
30964287115 .1091209242179718 .0755696813363442 0 0 -1 16 95 13 0 ?75 99 93 97 0
 0 1 30 98 16 0 99 97 100 0 +.0698272383946602 .1091209242179718 .06988649285651
21 1 0 0 16 99 15 0 ?72 101 95 98 0 0 1 30 100 18 0 101 98 102 0 +.0782861855385
59 .1091209242179718 .0614275457126133 .707106781186548 0 -.707106781186548 16 1
01 17 0 ?69 103 99 100 0 0 1 30 102 20 0 103 100 104 0 +.078286185538559 .109120
9242179718 .0614275457126133 0 0 -1 16 103 19 0 ?66 105 101 102 0 0 1 30 104 22
 0 105 102 106 0 +.0699090737319318 .1091209242179718 -.0875476307842037 -.68603
5976665954 0 -.727567617970997 16 105 21 0 ?63 107 103 104 0 0 1 30 106 24 0 107
 104 108 0 +-.07 .1091209242179718 -.0875476307842037 -1 0 0 16 107 23 0 ?60 109
 105 106 0 0 1 30 108 26 0 109 106 110 0 +-.0788842502287491 .1091209242179718 -
.0786633805554547 -.707106781186549 0 .707106781186547 16 109 25 0 ?57 111 107 1
08 0 0 1 30 110 28 0 111 108 112 0 +-.0788842502287491 .1091209242179718 .060920
4072904916 0 0 1 16 111 27 0 ?54 91 109 110 0 0 1 30 112 30 0 91 110 113 0 +-.07
 .1091209242179718 .0698046575192405 .707106781186547 0 .707106781186548 16 91 2
9 0 ?85 20 111 112 0 0 1 30 113 32 0 20 112 114 0 +0 .1091209242179718 -.0544526
439473362 1 0 0 16 20 31 0 ?19 115 91 113 0 0 1 30 114 34 0 115 113 116 0 +.0449
883955834485 .1091209242179718 -.03453325388189245 .608899520088483 0 .793247360
182192 16 115 33 0 ?46 117 20 114 0 0 1 30 116 36 0 117 114 118 0 +.038066999094
7237 .1091209242179718 0 0 0 1 16 117 35 0 ?43 119 115 116 0 0 1 30 118 38 0 119
 116 120 0 +.03158614330946985 .1091209242179718 .03158614330946705 -.7071067811
86516 0 .707106781186579 16 119 37 0 ?40 121 117 118 0 0 1 30 120 40 0 121 118 1
22 0 +.0296982002923893 .1091209242179718 121222364066252e-29 -4081808421815965e
-29 0 1 16 121 39 0 ?37 123 119 120 0 0 1 30 122 42 0 123 120 124 0 +0 .10912092
42179718 .0401039139491789 -1 0 0 16 123 41 0 ?34 125 121 122 0 0 1 30 124 44 0
 125 122 126 0 +-.03257870508083365 .1091209242179718 0 0 0 -1 16 125 43 0 ?31 1
27 123 124 0 0 1 30 126 46 0 127 124 13 0 +-.03196985090414305 .1091209242179718
 .03404581524856335 -.728982492650502 0 -.68453234065971 16 127 45 0 ?24 16 125
 126 0 0 1 30 13 48 0 16 126 6 0 +-.0415631219524215 .1091209242179718 0 0 0 -1
 16 16 47 0 ?21 9 127 13 0 0 1 17 24 0 23 21 31 22 128 127 0 25 +15 23 6 0 19 12
 0 17 31 0 23 24 34 27 129 125 0 128 +17 128 0 0 0 0 27 24 127 0 0 -17 25 0 0 0
 0 22 21 16 0 0 -17 34 0 23 31 37 32 130 123 0 129 +17 129 0 0 0 0 32 31 125 0 0
 -17 37 0 23 34 40 35 131 121 0 130 +17 130 0 0 0 0 35 34 123 0 0 -17 40 0 23 37
 43 38 132 119 0 131 +17 131 0 0 0 0 38 37 121 0 0 -17 43 0 23 40 46 41 133 117
 0 132 +17 132 0 0 0 0 41 40 119 0 0 -17 46 0 23 43 19 44 134 115 0 133 +17 133
 0 0 0 0 44 43 117 0 0 -17 19 0 23 46 15 47 17 20 0 134 +17 134 0 0 0 0 47 46 11
5 0 0 -17 15 0 23 19 21 10 26 9 0 0 +17 26 0 0 0 0 18 15 9 0 0 -14 255 12 1 135
 ?0 0 84 4 5 -0 0 0 0 4 81 255 1 135 127 136 12 0 0 0 0 137 80 255 1 136 138 139
 9000 1 1 1 1 1 1 1 1 0 FFFFTFTFFFFFFF1 82 255 1 137 777781714 79 255 14 139 SWE
ntUnchanged17 54 0 84 85 57 52 140 111 0 90 +17 57 0 84 54 60 55 141 109 0 140 +
17 140 0 0 0 0 55 54 111 0 0 -17 90 0 0 0 0 52 85 91 0 0 -17 60 0 84 57 63 58 14
2 107 0 141 +17 141 0 0 0 0 58 57 109 0 0 -17 63 0 84 60 66 61 143 105 0 142 +17
 142 0 0 0 0 61 60 107 0 0 -17 66 0 84 63 69 64 144 103 0 143 +17 143 0 0 0 0 64
 63 105 0 0 -17 69 0 84 66 72 67 145 101 0 144 +17 144 0 0 0 0 67 66 103 0 0 -17
 72 0 84 69 75 70 146 99 0 145 +17 145 0 0 0 0 70 69 101 0 0 -17 75 0 84 72 78 7
3 147 95 0 146 +17 146 0 0 0 0 73 72 99 0 0 -17 78 0 84 75 81 76 89 93 0 147 +17
 147 0 0 0 0 76 75 95 0 0 -17 89 0 0 0 0 79 78 93 0 0 -74 4 CI16 index_map_offse
t0 0 1 dCCZ20 11 1 0 0 135 0 0 0 0 0 0 0 0 0 0 0 0 0 0 0 0 0 0 0 1 0 
